<svg width="35" height="20" viewBox="0 0 35 20" fill="none" xmlns="http://www.w3.org/2000/svg">
<path d="M32.5626 6.87529H32.0411V5.45719C32.0411 3.82199 30.7107 2.49165 29.0755 2.49165H28.3358C28.0219 1.32636 26.9564 0.466064 25.6933 0.466064C24.1843 0.466064 22.9567 1.69365 22.9567 3.20269V7.73139H12.3441V3.20269C12.3441 1.69365 11.1164 0.466064 9.60746 0.466064C8.34442 0.466064 7.279 1.32636 6.96509 2.49165H6.22533C4.59007 2.49165 3.25969 3.82199 3.25969 5.45719V6.87529H2.7382C1.58698 6.87529 0.650391 7.81199 0.650391 8.96319V11.3278C0.650391 12.479 1.58698 13.4156 2.7382 13.4156H3.25976V14.8412C3.25976 16.4765 4.59014 17.8068 6.22539 17.8068H6.96516C7.27906 18.9721 8.34448 19.8324 9.60753 19.8324C11.1166 19.8324 12.3441 18.6048 12.3441 17.0958V12.5671H21.4417C21.7169 12.5671 21.9398 12.3442 21.9398 12.069C21.9398 11.7939 21.7169 11.571 21.4417 11.571H12.3441V8.72739H22.9567V17.0959C22.9567 18.6049 24.1843 19.8325 25.6933 19.8325C26.9564 19.8325 28.0219 18.9722 28.3358 17.8069H29.0755C30.7107 17.8069 32.0411 16.4766 32.0411 14.8413V13.4156H32.5626C33.7138 13.4156 34.6504 12.4791 34.6504 11.3279V8.96319C34.6504 7.81189 33.7138 6.87529 32.5626 6.87529ZM3.25976 12.4196H2.7382C2.13623 12.4196 1.64648 11.9298 1.64648 11.3279V8.96319C1.64648 8.36119 2.13623 7.87149 2.7382 7.87149H3.25976V12.4196ZM11.348 17.0959C11.348 18.0556 10.5672 18.8364 9.60746 18.8364C8.64769 18.8364 7.86696 18.0556 7.86696 17.0959V7.04699C7.86696 6.77189 7.64396 6.54899 7.36891 6.54899C7.09385 6.54899 6.87086 6.77189 6.87086 7.04699V16.8108H6.22539C5.13939 16.8108 4.25585 15.9273 4.25585 14.8414V5.45719C4.25585 4.37119 5.13939 3.48769 6.22539 3.48769H6.87086V4.84049C6.87086 5.11559 7.09385 5.33859 7.36891 5.33859C7.64396 5.33859 7.86696 5.11559 7.86696 4.84049V3.20259C7.86696 2.2429 8.64776 1.46209 9.60746 1.46209C10.5672 1.46209 11.348 2.2429 11.348 3.20259V17.0959ZM27.4339 17.0959C27.4339 18.0556 26.6531 18.8364 25.6933 18.8364C24.7336 18.8364 23.9528 18.0556 23.9528 17.0959V3.20259C23.9528 2.2429 24.7336 1.46209 25.6933 1.46209C26.6531 1.46209 27.4339 2.2429 27.4339 3.20259V17.0959ZM31.045 14.8413C31.045 15.9272 30.1615 16.8108 29.0755 16.8108H28.43V3.48769H29.0755C30.1615 3.48769 31.045 4.37119 31.045 5.45719V14.8413ZM33.6543 11.3279C33.6543 11.9298 33.1646 12.4195 32.5626 12.4195H32.0411V7.87139H32.5626C33.1646 7.87139 33.6543 8.36119 33.6543 8.96319V11.3279Z" fill="#DB1B1B"/>
</svg>
